G04 #@! TF.GenerationSoftware,KiCad,Pcbnew,5.0.2+dfsg1-1+deb10u1*
G04 #@! TF.CreationDate,2023-11-22T23:09:25+01:00*
G04 #@! TF.ProjectId,RSO-RouteurSolaireOpensource,52534f2d-526f-4757-9465-7572536f6c61,rev?*
G04 #@! TF.SameCoordinates,Original*
G04 #@! TF.FileFunction,Copper,L2,Bot*
G04 #@! TF.FilePolarity,Positive*
%FSLAX46Y46*%
G04 Gerber Fmt 4.6, Leading zero omitted, Abs format (unit mm)*
G04 Created by KiCad (PCBNEW 5.0.2+dfsg1-1+deb10u1) date mer. 22 nov. 2023 23:09:25 CET*
%MOMM*%
%LPD*%
G01*
G04 APERTURE LIST*
G04 #@! TA.AperFunction,ComponentPad*
%ADD10R,3.000000X3.000000*%
G04 #@! TD*
G04 #@! TA.AperFunction,ComponentPad*
%ADD11C,3.000000*%
G04 #@! TD*
G04 #@! TA.AperFunction,ComponentPad*
%ADD12C,1.600000*%
G04 #@! TD*
G04 #@! TA.AperFunction,ComponentPad*
%ADD13O,1.600000X1.600000*%
G04 #@! TD*
G04 #@! TA.AperFunction,ComponentPad*
%ADD14C,1.800000*%
G04 #@! TD*
G04 #@! TA.AperFunction,ComponentPad*
%ADD15R,1.800000X1.800000*%
G04 #@! TD*
G04 #@! TA.AperFunction,ComponentPad*
%ADD16R,1.600000X1.600000*%
G04 #@! TD*
G04 #@! TA.AperFunction,ComponentPad*
%ADD17R,2.400000X2.400000*%
G04 #@! TD*
G04 #@! TA.AperFunction,ComponentPad*
%ADD18C,2.400000*%
G04 #@! TD*
G04 #@! TA.AperFunction,ComponentPad*
%ADD19R,2.000000X2.000000*%
G04 #@! TD*
G04 #@! TA.AperFunction,ComponentPad*
%ADD20O,2.000000X2.000000*%
G04 #@! TD*
G04 #@! TA.AperFunction,ComponentPad*
%ADD21O,2.000000X1.905000*%
G04 #@! TD*
G04 #@! TA.AperFunction,ComponentPad*
%ADD22R,2.000000X1.905000*%
G04 #@! TD*
G04 #@! TA.AperFunction,ComponentPad*
%ADD23C,1.500000*%
G04 #@! TD*
G04 #@! TA.AperFunction,ViaPad*
%ADD24C,0.800000*%
G04 #@! TD*
G04 #@! TA.AperFunction,Conductor*
%ADD25C,1.000000*%
G04 #@! TD*
G04 #@! TA.AperFunction,Conductor*
%ADD26C,0.250000*%
G04 #@! TD*
G04 #@! TA.AperFunction,Conductor*
%ADD27C,0.500000*%
G04 #@! TD*
G04 #@! TA.AperFunction,Conductor*
%ADD28C,3.000000*%
G04 #@! TD*
G04 APERTURE END LIST*
D10*
G04 #@! TO.P,Interupteur,1*
G04 #@! TO.N,N/C*
X40000000Y-73500000D03*
D11*
G04 #@! TO.P,Interupteur,2*
X40000000Y-78580000D03*
G04 #@! TD*
G04 #@! TO.P,Secteur 230v ,2*
G04 #@! TO.N,N/C*
X40000000Y-66580000D03*
D10*
G04 #@! TO.P,Secteur 230v ,1*
X40000000Y-61500000D03*
G04 #@! TD*
D11*
G04 #@! TO.P,SCT 013 - 30A / 1v,2*
G04 #@! TO.N,N/C*
X70160000Y-135000000D03*
D10*
G04 #@! TO.P,SCT 013 - 30A / 1v,1*
X65080000Y-135000000D03*
G04 #@! TD*
D12*
G04 #@! TO.P,1k,1*
G04 #@! TO.N,N/C*
X99500000Y-138500000D03*
D13*
G04 #@! TO.P,1k,2*
X99500000Y-128340000D03*
G04 #@! TD*
D14*
G04 #@! TO.P,LED,2*
G04 #@! TO.N,N/C*
X87000000Y-134540000D03*
D15*
G04 #@! TO.P,LED,1*
X87000000Y-132000000D03*
G04 #@! TD*
D10*
G04 #@! TO.P,- LED +,1*
G04 #@! TO.N,N/C*
X109000000Y-59000000D03*
D11*
G04 #@! TO.P,- LED +,2*
X103920000Y-59000000D03*
G04 #@! TD*
D10*
G04 #@! TO.P,GND / 10PWM,1*
G04 #@! TO.N,N/C*
X104500000Y-129000000D03*
D11*
G04 #@! TO.P,GND / 10PWM,2*
X109580000Y-129000000D03*
G04 #@! TD*
D10*
G04 #@! TO.P,GND / 11PWM,1*
G04 #@! TO.N,N/C*
X127000000Y-129000000D03*
D11*
G04 #@! TO.P,GND / 11PWM,2*
X132080000Y-129000000D03*
G04 #@! TD*
G04 #@! TO.P,GND / 9PWM,2*
G04 #@! TO.N,N/C*
X121080000Y-129000000D03*
D10*
G04 #@! TO.P,GND / 9PWM,1*
X116000000Y-129000000D03*
G04 #@! TD*
D11*
G04 #@! TO.P,230v / 9v,10*
G04 #@! TO.N,N/C*
X68500000Y-82000000D03*
G04 #@! TO.P,230v / 9v,9*
X68500000Y-77000000D03*
G04 #@! TO.P,230v / 9v,8*
X68500000Y-72000000D03*
G04 #@! TO.P,230v / 9v,7*
X68500000Y-67000000D03*
G04 #@! TO.P,230v / 9v,6*
X68500000Y-62000000D03*
G04 #@! TO.P,230v / 9v,5*
X48500000Y-62000000D03*
G04 #@! TO.P,230v / 9v,4*
X48500000Y-67000000D03*
G04 #@! TO.P,230v / 9v,3*
X48500000Y-72000000D03*
G04 #@! TO.P,230v / 9v,2*
X48500000Y-77000000D03*
G04 #@! TO.P,230v / 9v,1*
X48500000Y-82000000D03*
G04 #@! TD*
D13*
G04 #@! TO.P,R/Transfo,2*
G04 #@! TO.N,N/C*
X99076987Y-109847034D03*
D12*
G04 #@! TO.P,R/Transfo,1*
X99076987Y-99687034D03*
G04 #@! TD*
D13*
G04 #@! TO.P,R/Transfo,2*
G04 #@! TO.N,N/C*
X99076987Y-124347034D03*
D12*
G04 #@! TO.P,R/Transfo,1*
X99076987Y-114187034D03*
G04 #@! TD*
G04 #@! TO.P,4\002C7uF,2*
G04 #@! TO.N,N/C*
X86500000Y-126000000D03*
D16*
G04 #@! TO.P,4\002C7uF,1*
X86500000Y-123500000D03*
G04 #@! TD*
D12*
G04 #@! TO.P,100K,1*
G04 #@! TO.N,N/C*
X94576987Y-128187034D03*
D13*
G04 #@! TO.P,100K,2*
X94576987Y-138347034D03*
G04 #@! TD*
D12*
G04 #@! TO.P,100K,1*
G04 #@! TO.N,N/C*
X94576987Y-114187034D03*
D13*
G04 #@! TO.P,100K,2*
X94576987Y-124347034D03*
G04 #@! TD*
D16*
G04 #@! TO.P,4\002C7uF,1*
G04 #@! TO.N,N/C*
X72500000Y-125000000D03*
D12*
G04 #@! TO.P,4\002C7uF,2*
X72500000Y-127500000D03*
G04 #@! TD*
D13*
G04 #@! TO.P,100K,2*
G04 #@! TO.N,N/C*
X77076987Y-138347034D03*
D12*
G04 #@! TO.P,100K,1*
X77076987Y-128187034D03*
G04 #@! TD*
D13*
G04 #@! TO.P,100K,2*
G04 #@! TO.N,N/C*
X77076987Y-124347034D03*
D12*
G04 #@! TO.P,100K,1*
X77076987Y-114187034D03*
G04 #@! TD*
D10*
G04 #@! TO.P,SCL / SDA,1*
G04 #@! TO.N,N/C*
X132000000Y-59000000D03*
D11*
G04 #@! TO.P,SCL / SDA,2*
X126920000Y-59000000D03*
G04 #@! TD*
D12*
G04 #@! TO.P,10nF,1*
G04 #@! TO.N,N/C*
X117462206Y-116678164D03*
G04 #@! TO.P,10nF,2*
X117462206Y-121678164D03*
G04 #@! TD*
D10*
G04 #@! TO.P,Digital 7,1*
G04 #@! TO.N,N/C*
X111462206Y-116678164D03*
D11*
G04 #@! TO.P,Digital 7,2*
X111462206Y-121758164D03*
G04 #@! TD*
D12*
G04 #@! TO.P,10K,1*
G04 #@! TO.N,N/C*
X120962206Y-121678164D03*
D13*
G04 #@! TO.P,10K,2*
X131122206Y-121678164D03*
G04 #@! TD*
D12*
G04 #@! TO.P,22pF,1*
G04 #@! TO.N,N/C*
X110462206Y-92178164D03*
G04 #@! TO.P,22pF,2*
X110462206Y-97178164D03*
G04 #@! TD*
D13*
G04 #@! TO.P,10K,2*
G04 #@! TO.N,N/C*
X113462206Y-76338164D03*
D12*
G04 #@! TO.P,10K,1*
X113462206Y-66178164D03*
G04 #@! TD*
D11*
G04 #@! TO.P,+5v / GND,2*
G04 #@! TO.N,N/C*
X115420000Y-59000000D03*
D10*
G04 #@! TO.P,+5v / GND,1*
X120500000Y-59000000D03*
G04 #@! TD*
D17*
G04 #@! TO.P,1000uF,1*
G04 #@! TO.N,N/C*
X96000000Y-81000000D03*
D18*
G04 #@! TO.P,1000uF,2*
X91000000Y-81000000D03*
G04 #@! TD*
D19*
G04 #@! TO.P,B40R,1*
G04 #@! TO.N,N/C*
X76000000Y-58000000D03*
D20*
G04 #@! TO.P,B40R,3*
X81000000Y-63000000D03*
G04 #@! TO.P,B40R,2*
X76000000Y-63000000D03*
G04 #@! TO.P,B40R,4*
X81000000Y-58000000D03*
G04 #@! TD*
D18*
G04 #@! TO.P,1000uF,2*
G04 #@! TO.N,N/C*
X82000000Y-81000000D03*
D17*
G04 #@! TO.P,1000uF,1*
X77000000Y-81000000D03*
G04 #@! TD*
D21*
G04 #@! TO.P,RIT 7805,3*
G04 #@! TO.N,N/C*
X86000000Y-71580000D03*
G04 #@! TO.P,RIT 7805,2*
X86000000Y-69040000D03*
D22*
G04 #@! TO.P,RIT 7805,1*
X86000000Y-66500000D03*
G04 #@! TD*
D13*
G04 #@! TO.P,1K,2*
G04 #@! TO.N,N/C*
X97660000Y-57500000D03*
D12*
G04 #@! TO.P,1K,1*
X87500000Y-57500000D03*
G04 #@! TD*
D13*
G04 #@! TO.P,R. Var,2*
G04 #@! TO.N,N/C*
X97660000Y-60500000D03*
D12*
G04 #@! TO.P,R. Var,1*
X87500000Y-60500000D03*
G04 #@! TD*
D13*
G04 #@! TO.P,ATMega328P,28*
G04 #@! TO.N,N/C*
X127582206Y-76178164D03*
G04 #@! TO.P,ATMega328P,14*
X119962206Y-109198164D03*
G04 #@! TO.P,ATMega328P,27*
X127582206Y-78718164D03*
G04 #@! TO.P,ATMega328P,13*
X119962206Y-106658164D03*
G04 #@! TO.P,ATMega328P,26*
X127582206Y-81258164D03*
G04 #@! TO.P,ATMega328P,12*
X119962206Y-104118164D03*
G04 #@! TO.P,ATMega328P,25*
X127582206Y-83798164D03*
G04 #@! TO.P,ATMega328P,11*
X119962206Y-101578164D03*
G04 #@! TO.P,ATMega328P,24*
X127582206Y-86338164D03*
G04 #@! TO.P,ATMega328P,10*
X119962206Y-99038164D03*
G04 #@! TO.P,ATMega328P,23*
X127582206Y-88878164D03*
G04 #@! TO.P,ATMega328P,9*
X119962206Y-96498164D03*
G04 #@! TO.P,ATMega328P,22*
X127582206Y-91418164D03*
G04 #@! TO.P,ATMega328P,8*
X119962206Y-93958164D03*
G04 #@! TO.P,ATMega328P,21*
X127582206Y-93958164D03*
G04 #@! TO.P,ATMega328P,7*
X119962206Y-91418164D03*
G04 #@! TO.P,ATMega328P,20*
X127582206Y-96498164D03*
G04 #@! TO.P,ATMega328P,6*
X119962206Y-88878164D03*
G04 #@! TO.P,ATMega328P,19*
X127582206Y-99038164D03*
G04 #@! TO.P,ATMega328P,5*
X119962206Y-86338164D03*
G04 #@! TO.P,ATMega328P,18*
X127582206Y-101578164D03*
G04 #@! TO.P,ATMega328P,4*
X119962206Y-83798164D03*
G04 #@! TO.P,ATMega328P,17*
X127582206Y-104118164D03*
G04 #@! TO.P,ATMega328P,3*
X119962206Y-81258164D03*
G04 #@! TO.P,ATMega328P,16*
X127582206Y-106658164D03*
G04 #@! TO.P,ATMega328P,2*
X119962206Y-78718164D03*
G04 #@! TO.P,ATMega328P,15*
X127582206Y-109198164D03*
D16*
G04 #@! TO.P,ATMega328P,1*
X119962206Y-76178164D03*
G04 #@! TD*
D23*
G04 #@! TO.P,16Mhz,2*
G04 #@! TO.N,N/C*
X114962206Y-95778164D03*
G04 #@! TO.P,16Mhz,1*
X114962206Y-100678164D03*
G04 #@! TD*
D12*
G04 #@! TO.P,22pF,2*
G04 #@! TO.N,N/C*
X110462206Y-104678164D03*
G04 #@! TO.P,22pF,1*
X110462206Y-99678164D03*
G04 #@! TD*
D24*
G04 #@! TO.N,*
X92000000Y-68000000D03*
X92000000Y-70540000D03*
X123962206Y-71178164D03*
X101500000Y-70540000D03*
X103000000Y-92500000D03*
X85000000Y-119500000D03*
X79812966Y-114187034D03*
X87000000Y-114187034D03*
X99076987Y-112000000D03*
G04 #@! TD*
D25*
G04 #@! TO.N,*
X68500000Y-77000000D02*
X74500000Y-71000000D01*
X77000000Y-81000000D02*
X77000000Y-83500000D01*
X77000000Y-83500000D02*
X74500000Y-86000000D01*
X74500000Y-86000000D02*
X67000000Y-86000000D01*
X67000000Y-86000000D02*
X64000000Y-83000000D01*
X64000000Y-83000000D02*
X64000000Y-59500000D01*
X65500000Y-58000000D02*
X76000000Y-58000000D01*
X64000000Y-59500000D02*
X65500000Y-58000000D01*
X71500000Y-65500000D02*
X70000000Y-67000000D01*
X71500000Y-62000000D02*
X71500000Y-65500000D01*
X81000000Y-58000000D02*
X78500000Y-60500000D01*
D26*
X70000000Y-67000000D02*
X68500000Y-67000000D01*
D25*
X73000000Y-60500000D02*
X71500000Y-62000000D01*
X78500000Y-60500000D02*
X73000000Y-60500000D01*
D26*
X48000000Y-61500000D02*
X48500000Y-62000000D01*
X47840000Y-82660000D02*
X48500000Y-82000000D01*
D25*
X87500000Y-77500000D02*
X91000000Y-81000000D01*
X81000000Y-77500000D02*
X87500000Y-77500000D01*
X86000000Y-65000000D02*
X86000000Y-66500000D01*
X76000000Y-58000000D02*
X76000000Y-56750000D01*
X82500000Y-56000000D02*
X84500000Y-58000000D01*
X76750000Y-56000000D02*
X82500000Y-56000000D01*
X76000000Y-56750000D02*
X76750000Y-56000000D01*
X84500000Y-58000000D02*
X84500000Y-63500000D01*
X84500000Y-63500000D02*
X86000000Y-65000000D01*
X83540000Y-69040000D02*
X81000000Y-66500000D01*
X81000000Y-63000000D02*
X81000000Y-66500000D01*
X86000000Y-69040000D02*
X83540000Y-69040000D01*
X81000000Y-66500000D02*
X81000000Y-77500000D01*
D26*
X96000000Y-78000000D02*
X96000000Y-81000000D01*
D25*
X95000000Y-77000000D02*
X96000000Y-78000000D01*
X89500000Y-77000000D02*
X95000000Y-77000000D01*
X86000000Y-71580000D02*
X86000000Y-73500000D01*
X86000000Y-73500000D02*
X89500000Y-77000000D01*
X87500000Y-60500000D02*
X87500000Y-57500000D01*
X87500000Y-60500000D02*
X87500000Y-61631370D01*
X97660000Y-57500000D02*
X102000000Y-57500000D01*
X87960000Y-69040000D02*
X86000000Y-69040000D01*
X89000000Y-63500000D02*
X89000000Y-68000000D01*
X89000000Y-68000000D02*
X87960000Y-69040000D01*
X93460000Y-70540000D02*
X92000000Y-70540000D01*
X94500000Y-69500000D02*
X93460000Y-70540000D01*
X94500000Y-64500000D02*
X94500000Y-69500000D01*
X96000000Y-77000000D02*
X96000000Y-81000000D01*
X92000000Y-68000000D02*
X92000000Y-68000000D01*
X89500000Y-72000000D02*
X93500000Y-76000000D01*
X93500000Y-76000000D02*
X95000000Y-76000000D01*
X89500000Y-69450000D02*
X89500000Y-72000000D01*
X90950000Y-68000000D02*
X89500000Y-69450000D01*
D26*
X119802206Y-76338164D02*
X119962206Y-76178164D01*
D27*
X113462206Y-76338164D02*
X119802206Y-76338164D01*
X112662207Y-66978163D02*
X113462206Y-66178164D01*
X111462206Y-68178164D02*
X112662207Y-66978163D01*
X111462206Y-88178164D02*
X111462206Y-68178164D01*
X114702206Y-91418164D02*
X111462206Y-88178164D01*
X119962206Y-91418164D02*
X114702206Y-91418164D01*
X127582206Y-96498164D02*
X127582206Y-93958164D01*
X122702206Y-91418164D02*
X119962206Y-91418164D01*
X124442207Y-93158165D02*
X122702206Y-91418164D01*
X127582206Y-93958164D02*
X126782207Y-93158165D01*
X126782207Y-93158165D02*
X124442207Y-93158165D01*
X115682206Y-96498164D02*
X114962206Y-95778164D01*
X119962206Y-96498164D02*
X115682206Y-96498164D01*
X119962206Y-99038164D02*
X116602206Y-99038164D01*
X116602206Y-99038164D02*
X114962206Y-100678164D01*
X127582206Y-91418164D02*
X125702206Y-91418164D01*
X125702206Y-91418164D02*
X123962206Y-89678164D01*
X123962206Y-89678164D02*
X123962206Y-71178164D01*
D26*
X111362206Y-92178164D02*
X110462206Y-92178164D01*
D27*
X114962206Y-95778164D02*
X111362206Y-92178164D01*
D26*
X110962206Y-104678164D02*
X110462206Y-104678164D01*
D27*
X114962206Y-100678164D02*
X110962206Y-104678164D01*
X130462206Y-111178164D02*
X127962206Y-113678164D01*
X111462206Y-114928164D02*
X112712206Y-113678164D01*
X111462206Y-116678164D02*
X111462206Y-114928164D01*
X118962206Y-113678164D02*
X113962206Y-113678164D01*
X113962206Y-113678164D02*
X112962206Y-113678164D01*
X112712206Y-113678164D02*
X113962206Y-113678164D01*
D26*
X111882206Y-122178164D02*
X111462206Y-121758164D01*
D27*
X132462206Y-118678164D02*
X132462206Y-118838164D01*
X132462206Y-117678164D02*
X132462206Y-118678164D01*
X132462206Y-121469534D02*
X132462206Y-121178164D01*
X132253576Y-121678164D02*
X132462206Y-121469534D01*
X131122206Y-121678164D02*
X132253576Y-121678164D01*
X132462206Y-118678164D02*
X132462206Y-121178164D01*
X120962206Y-121678164D02*
X117462206Y-121678164D01*
D26*
X111542206Y-121678164D02*
X111462206Y-121758164D01*
D27*
X117462206Y-121678164D02*
X111542206Y-121678164D01*
X117462206Y-116678164D02*
X111462206Y-116678164D01*
X109542206Y-121758164D02*
X111462206Y-121758164D01*
X119962206Y-106658164D02*
X118830836Y-106658164D01*
X108962206Y-114678164D02*
X108962206Y-120678164D01*
X124962206Y-113678164D02*
X118962206Y-113678164D01*
X127962206Y-113678164D02*
X124962206Y-113678164D01*
X110962206Y-112678164D02*
X108962206Y-114678164D01*
X108962206Y-121178164D02*
X109542206Y-121758164D01*
X108962206Y-120678164D02*
X108962206Y-121178164D01*
D25*
X92000000Y-68000000D02*
X90950000Y-68000000D01*
X92000000Y-70540000D02*
X92000000Y-70540000D01*
D27*
X130462206Y-71000000D02*
X124140370Y-71000000D01*
X123962206Y-71178164D02*
X124140370Y-71000000D01*
X130462206Y-71000000D02*
X130462206Y-111178164D01*
X113462206Y-66178164D02*
X130640370Y-66178164D01*
X130640370Y-66178164D02*
X132462206Y-68000000D01*
X132462206Y-68000000D02*
X132462206Y-117678164D01*
X123962206Y-71178164D02*
X123962206Y-71178164D01*
X116982206Y-106658164D02*
X110962206Y-112678164D01*
X118830836Y-106658164D02*
X116982206Y-106658164D01*
D25*
X76000000Y-69500000D02*
X76000000Y-63000000D01*
X74500000Y-71000000D02*
X76000000Y-69500000D01*
X87500000Y-62000000D02*
X89000000Y-63500000D01*
D26*
X87500000Y-61631370D02*
X87500000Y-62000000D01*
D25*
X97540000Y-74460000D02*
X95500000Y-76500000D01*
X97540000Y-65500000D02*
X97540000Y-74460000D01*
X95000000Y-76000000D02*
X95500000Y-76500000D01*
X95500000Y-76500000D02*
X96000000Y-77000000D01*
X97660000Y-60500000D02*
X95500000Y-60500000D01*
X94500000Y-61500000D02*
X94500000Y-64500000D01*
X95500000Y-60500000D02*
X94500000Y-61500000D01*
D26*
X77042997Y-124381024D02*
X77076987Y-124347034D01*
D25*
X74740502Y-136010549D02*
X77076987Y-138347034D01*
D26*
X74740502Y-133558180D02*
X74740502Y-133915886D01*
D25*
X74740502Y-133915886D02*
X74740502Y-136010549D01*
X96000000Y-87500000D02*
X96000000Y-82450000D01*
D26*
X96000000Y-82450000D02*
X96000000Y-81000000D01*
X77076987Y-113055664D02*
X77000000Y-112978677D01*
D25*
X77076987Y-114187034D02*
X77076987Y-113055664D01*
X101500000Y-70540000D02*
X101500000Y-88500000D01*
X101500000Y-88500000D02*
X92500000Y-97500000D01*
D26*
X94542997Y-124381024D02*
X94576987Y-124347034D01*
D25*
X94576987Y-124347034D02*
X94576987Y-128187034D01*
X94576987Y-128187034D02*
X93445617Y-128187034D01*
X92240502Y-136010549D02*
X94576987Y-138347034D01*
D26*
X92240502Y-133558180D02*
X92240502Y-133915886D01*
D25*
X92240502Y-133915886D02*
X92240502Y-136010549D01*
X77076987Y-114187034D02*
X79812966Y-114187034D01*
X79812966Y-114187034D02*
X79812966Y-114187034D01*
X94576987Y-124347034D02*
X99076987Y-124347034D01*
X87000000Y-114187034D02*
X94576987Y-114187034D01*
X99076987Y-110978404D02*
X99076987Y-112000000D01*
D26*
X99076987Y-109847034D02*
X99076987Y-110978404D01*
D25*
X99076987Y-112000000D02*
X99076987Y-114187034D01*
X82847034Y-138347034D02*
X88500000Y-138347034D01*
X94576987Y-138347034D02*
X88500000Y-138347034D01*
X82000000Y-133424021D02*
X82000000Y-138347034D01*
X77076987Y-138347034D02*
X82000000Y-138347034D01*
X82000000Y-138347034D02*
X82847034Y-138347034D01*
X127000000Y-131500000D02*
X127000000Y-129000000D01*
X126152966Y-132347034D02*
X127000000Y-131500000D01*
X104500000Y-130750000D02*
X104500000Y-132347034D01*
X116000000Y-129000000D02*
X116000000Y-132347034D01*
X104500000Y-132347034D02*
X116000000Y-132347034D01*
X116000000Y-132347034D02*
X126152966Y-132347034D01*
X104500000Y-129000000D02*
X104500000Y-130750000D01*
X85000000Y-119500000D02*
X85000000Y-113500000D01*
X82000000Y-111500000D02*
X82000000Y-133424021D01*
X92500000Y-97500000D02*
X90000000Y-100000000D01*
X77000000Y-112978677D02*
X77000000Y-112000000D01*
X103000000Y-92500000D02*
X92500000Y-103000000D01*
X96000000Y-87500000D02*
X96000000Y-89500000D01*
X96000000Y-89500000D02*
X87500000Y-98000000D01*
X109000000Y-60750000D02*
X105750000Y-64000000D01*
X109000000Y-59000000D02*
X109000000Y-60750000D01*
X99040000Y-64000000D02*
X97540000Y-65500000D01*
X105750000Y-64000000D02*
X99040000Y-64000000D01*
X102420001Y-57500001D02*
X103920000Y-59000000D01*
X102000000Y-57500000D02*
X102420001Y-57500001D01*
X88758583Y-123500000D02*
X93445617Y-128187034D01*
X86500000Y-123500000D02*
X88758583Y-123500000D01*
X92240502Y-129240502D02*
X92240502Y-133500000D01*
X89000000Y-126000000D02*
X92240502Y-129240502D01*
X86500000Y-126000000D02*
X89000000Y-126000000D01*
X92240502Y-131915886D02*
X92240502Y-133500000D01*
X92240502Y-133500000D02*
X92240502Y-133915886D01*
X88500000Y-138347034D02*
X87500000Y-138347034D01*
D26*
X87000000Y-137847034D02*
X87500000Y-138347034D01*
D25*
X87500000Y-138347034D02*
X86923013Y-138347034D01*
D26*
X99347034Y-138347034D02*
X99500000Y-138500000D01*
D25*
X94576987Y-138347034D02*
X99347034Y-138347034D01*
D26*
X102847034Y-132500000D02*
X103000000Y-132347034D01*
D25*
X103000000Y-132347034D02*
X104000000Y-132347034D01*
D26*
X103847034Y-132500000D02*
X104000000Y-132347034D01*
D25*
X104000000Y-132347034D02*
X104500000Y-132347034D01*
X74740502Y-130871872D02*
X74740502Y-133000000D01*
X72500000Y-128631370D02*
X74740502Y-130871872D01*
X72500000Y-127500000D02*
X72500000Y-128631370D01*
X74740502Y-131915886D02*
X74740502Y-133000000D01*
X74740502Y-133000000D02*
X74740502Y-133915886D01*
X72500000Y-125000000D02*
X77076987Y-125000000D01*
X77076987Y-124347034D02*
X77076987Y-125000000D01*
X77076987Y-125000000D02*
X77076987Y-128187034D01*
X65080000Y-135000000D02*
X65080000Y-129080000D01*
X69160000Y-125000000D02*
X72500000Y-125000000D01*
X65080000Y-129080000D02*
X69160000Y-125000000D01*
X81000000Y-77500000D02*
X81000000Y-80000000D01*
X81000000Y-80000000D02*
X82000000Y-81000000D01*
D28*
X40000000Y-66580000D02*
X40000000Y-72500000D01*
D26*
X40000000Y-61500000D02*
X41750000Y-61500000D01*
D28*
X40000000Y-61500000D02*
X48000000Y-61500000D01*
X40000000Y-80701320D02*
X40000000Y-82660000D01*
X40000000Y-78580000D02*
X40000000Y-80701320D01*
X40000000Y-82660000D02*
X47840000Y-82660000D01*
D25*
X87500000Y-98000000D02*
X87500000Y-101500000D01*
X87500000Y-101500000D02*
X85500000Y-103500000D01*
X85500000Y-103500000D02*
X77000000Y-112000000D01*
X90000000Y-103500000D02*
X88000000Y-105500000D01*
X90000000Y-100000000D02*
X90000000Y-103500000D01*
X89000000Y-104500000D02*
X88000000Y-105500000D01*
X88000000Y-105500000D02*
X82000000Y-111500000D01*
X92500000Y-103000000D02*
X92500000Y-106000000D01*
X92500000Y-106000000D02*
X90500000Y-108000000D01*
X90500000Y-108000000D02*
X85000000Y-113500000D01*
X103000000Y-135000000D02*
X99500000Y-138500000D01*
X103000000Y-132347034D02*
X103000000Y-135000000D01*
G04 #@! TD*
M02*
