G04 #@! TF.GenerationSoftware,KiCad,Pcbnew,5.0.2+dfsg1-1+deb10u1*
G04 #@! TF.CreationDate,2023-11-22T23:09:25+01:00*
G04 #@! TF.ProjectId,RSO-RouteurSolaireOpensource,52534f2d-526f-4757-9465-7572536f6c61,rev?*
G04 #@! TF.SameCoordinates,Original*
G04 #@! TF.FileFunction,Copper,L1,Top*
G04 #@! TF.FilePolarity,Positive*
%FSLAX46Y46*%
G04 Gerber Fmt 4.6, Leading zero omitted, Abs format (unit mm)*
G04 Created by KiCad (PCBNEW 5.0.2+dfsg1-1+deb10u1) date mer. 22 nov. 2023 23:09:25 CET*
%MOMM*%
%LPD*%
G01*
G04 APERTURE LIST*
G04 #@! TA.AperFunction,ComponentPad*
%ADD10R,3.000000X3.000000*%
G04 #@! TD*
G04 #@! TA.AperFunction,ComponentPad*
%ADD11C,3.000000*%
G04 #@! TD*
G04 #@! TA.AperFunction,ComponentPad*
%ADD12C,1.600000*%
G04 #@! TD*
G04 #@! TA.AperFunction,ComponentPad*
%ADD13O,1.600000X1.600000*%
G04 #@! TD*
G04 #@! TA.AperFunction,ComponentPad*
%ADD14C,1.800000*%
G04 #@! TD*
G04 #@! TA.AperFunction,ComponentPad*
%ADD15R,1.800000X1.800000*%
G04 #@! TD*
G04 #@! TA.AperFunction,ComponentPad*
%ADD16R,1.600000X1.600000*%
G04 #@! TD*
G04 #@! TA.AperFunction,ComponentPad*
%ADD17R,2.400000X2.400000*%
G04 #@! TD*
G04 #@! TA.AperFunction,ComponentPad*
%ADD18C,2.400000*%
G04 #@! TD*
G04 #@! TA.AperFunction,ComponentPad*
%ADD19R,2.000000X2.000000*%
G04 #@! TD*
G04 #@! TA.AperFunction,ComponentPad*
%ADD20O,2.000000X2.000000*%
G04 #@! TD*
G04 #@! TA.AperFunction,ComponentPad*
%ADD21O,2.000000X1.905000*%
G04 #@! TD*
G04 #@! TA.AperFunction,ComponentPad*
%ADD22R,2.000000X1.905000*%
G04 #@! TD*
G04 #@! TA.AperFunction,ComponentPad*
%ADD23C,1.500000*%
G04 #@! TD*
G04 #@! TA.AperFunction,ViaPad*
%ADD24C,0.800000*%
G04 #@! TD*
G04 #@! TA.AperFunction,Conductor*
%ADD25C,0.500000*%
G04 #@! TD*
G04 #@! TA.AperFunction,Conductor*
%ADD26C,0.250000*%
G04 #@! TD*
G04 #@! TA.AperFunction,Conductor*
%ADD27C,1.500000*%
G04 #@! TD*
G04 #@! TA.AperFunction,Conductor*
%ADD28C,0.600000*%
G04 #@! TD*
G04 #@! TA.AperFunction,Conductor*
%ADD29C,1.000000*%
G04 #@! TD*
G04 APERTURE END LIST*
D10*
G04 #@! TO.P,Interupteur,1*
G04 #@! TO.N,N/C*
X40000000Y-73500000D03*
D11*
G04 #@! TO.P,Interupteur,2*
X40000000Y-78580000D03*
G04 #@! TD*
G04 #@! TO.P,Secteur 230v ,2*
G04 #@! TO.N,N/C*
X40000000Y-66580000D03*
D10*
G04 #@! TO.P,Secteur 230v ,1*
X40000000Y-61500000D03*
G04 #@! TD*
D11*
G04 #@! TO.P,SCT 013 - 30A / 1v,2*
G04 #@! TO.N,N/C*
X70160000Y-135000000D03*
D10*
G04 #@! TO.P,SCT 013 - 30A / 1v,1*
X65080000Y-135000000D03*
G04 #@! TD*
D12*
G04 #@! TO.P,1k,1*
G04 #@! TO.N,N/C*
X99500000Y-138500000D03*
D13*
G04 #@! TO.P,1k,2*
X99500000Y-128340000D03*
G04 #@! TD*
D14*
G04 #@! TO.P,LED,2*
G04 #@! TO.N,N/C*
X87000000Y-134540000D03*
D15*
G04 #@! TO.P,LED,1*
X87000000Y-132000000D03*
G04 #@! TD*
D10*
G04 #@! TO.P,- LED +,1*
G04 #@! TO.N,N/C*
X109000000Y-59000000D03*
D11*
G04 #@! TO.P,- LED +,2*
X103920000Y-59000000D03*
G04 #@! TD*
D10*
G04 #@! TO.P,GND / 10PWM,1*
G04 #@! TO.N,N/C*
X104500000Y-129000000D03*
D11*
G04 #@! TO.P,GND / 10PWM,2*
X109580000Y-129000000D03*
G04 #@! TD*
D10*
G04 #@! TO.P,GND / 11PWM,1*
G04 #@! TO.N,N/C*
X127000000Y-129000000D03*
D11*
G04 #@! TO.P,GND / 11PWM,2*
X132080000Y-129000000D03*
G04 #@! TD*
G04 #@! TO.P,GND / 9PWM,2*
G04 #@! TO.N,N/C*
X121080000Y-129000000D03*
D10*
G04 #@! TO.P,GND / 9PWM,1*
X116000000Y-129000000D03*
G04 #@! TD*
D11*
G04 #@! TO.P,230v / 9v,10*
G04 #@! TO.N,N/C*
X68500000Y-82000000D03*
G04 #@! TO.P,230v / 9v,9*
X68500000Y-77000000D03*
G04 #@! TO.P,230v / 9v,8*
X68500000Y-72000000D03*
G04 #@! TO.P,230v / 9v,7*
X68500000Y-67000000D03*
G04 #@! TO.P,230v / 9v,6*
X68500000Y-62000000D03*
G04 #@! TO.P,230v / 9v,5*
X48500000Y-62000000D03*
G04 #@! TO.P,230v / 9v,4*
X48500000Y-67000000D03*
G04 #@! TO.P,230v / 9v,3*
X48500000Y-72000000D03*
G04 #@! TO.P,230v / 9v,2*
X48500000Y-77000000D03*
G04 #@! TO.P,230v / 9v,1*
X48500000Y-82000000D03*
G04 #@! TD*
D13*
G04 #@! TO.P,R/Transfo,2*
G04 #@! TO.N,N/C*
X99076987Y-109847034D03*
D12*
G04 #@! TO.P,R/Transfo,1*
X99076987Y-99687034D03*
G04 #@! TD*
D13*
G04 #@! TO.P,R/Transfo,2*
G04 #@! TO.N,N/C*
X99076987Y-124347034D03*
D12*
G04 #@! TO.P,R/Transfo,1*
X99076987Y-114187034D03*
G04 #@! TD*
G04 #@! TO.P,4\002C7uF,2*
G04 #@! TO.N,N/C*
X86500000Y-126000000D03*
D16*
G04 #@! TO.P,4\002C7uF,1*
X86500000Y-123500000D03*
G04 #@! TD*
D12*
G04 #@! TO.P,100K,1*
G04 #@! TO.N,N/C*
X94576987Y-128187034D03*
D13*
G04 #@! TO.P,100K,2*
X94576987Y-138347034D03*
G04 #@! TD*
D12*
G04 #@! TO.P,100K,1*
G04 #@! TO.N,N/C*
X94576987Y-114187034D03*
D13*
G04 #@! TO.P,100K,2*
X94576987Y-124347034D03*
G04 #@! TD*
D16*
G04 #@! TO.P,4\002C7uF,1*
G04 #@! TO.N,N/C*
X72500000Y-125000000D03*
D12*
G04 #@! TO.P,4\002C7uF,2*
X72500000Y-127500000D03*
G04 #@! TD*
D13*
G04 #@! TO.P,100K,2*
G04 #@! TO.N,N/C*
X77076987Y-138347034D03*
D12*
G04 #@! TO.P,100K,1*
X77076987Y-128187034D03*
G04 #@! TD*
D13*
G04 #@! TO.P,100K,2*
G04 #@! TO.N,N/C*
X77076987Y-124347034D03*
D12*
G04 #@! TO.P,100K,1*
X77076987Y-114187034D03*
G04 #@! TD*
D10*
G04 #@! TO.P,SCL / SDA,1*
G04 #@! TO.N,N/C*
X132000000Y-59000000D03*
D11*
G04 #@! TO.P,SCL / SDA,2*
X126920000Y-59000000D03*
G04 #@! TD*
D12*
G04 #@! TO.P,10nF,1*
G04 #@! TO.N,N/C*
X117462206Y-116678164D03*
G04 #@! TO.P,10nF,2*
X117462206Y-121678164D03*
G04 #@! TD*
D10*
G04 #@! TO.P,Digital 7,1*
G04 #@! TO.N,N/C*
X111462206Y-116678164D03*
D11*
G04 #@! TO.P,Digital 7,2*
X111462206Y-121758164D03*
G04 #@! TD*
D12*
G04 #@! TO.P,10K,1*
G04 #@! TO.N,N/C*
X120962206Y-121678164D03*
D13*
G04 #@! TO.P,10K,2*
X131122206Y-121678164D03*
G04 #@! TD*
D12*
G04 #@! TO.P,22pF,1*
G04 #@! TO.N,N/C*
X110462206Y-92178164D03*
G04 #@! TO.P,22pF,2*
X110462206Y-97178164D03*
G04 #@! TD*
D13*
G04 #@! TO.P,10K,2*
G04 #@! TO.N,N/C*
X113462206Y-76338164D03*
D12*
G04 #@! TO.P,10K,1*
X113462206Y-66178164D03*
G04 #@! TD*
D11*
G04 #@! TO.P,+5v / GND,2*
G04 #@! TO.N,N/C*
X115420000Y-59000000D03*
D10*
G04 #@! TO.P,+5v / GND,1*
X120500000Y-59000000D03*
G04 #@! TD*
D17*
G04 #@! TO.P,1000uF,1*
G04 #@! TO.N,N/C*
X96000000Y-81000000D03*
D18*
G04 #@! TO.P,1000uF,2*
X91000000Y-81000000D03*
G04 #@! TD*
D19*
G04 #@! TO.P,B40R,1*
G04 #@! TO.N,N/C*
X76000000Y-58000000D03*
D20*
G04 #@! TO.P,B40R,3*
X81000000Y-63000000D03*
G04 #@! TO.P,B40R,2*
X76000000Y-63000000D03*
G04 #@! TO.P,B40R,4*
X81000000Y-58000000D03*
G04 #@! TD*
D18*
G04 #@! TO.P,1000uF,2*
G04 #@! TO.N,N/C*
X82000000Y-81000000D03*
D17*
G04 #@! TO.P,1000uF,1*
X77000000Y-81000000D03*
G04 #@! TD*
D21*
G04 #@! TO.P,RIT 7805,3*
G04 #@! TO.N,N/C*
X86000000Y-71580000D03*
G04 #@! TO.P,RIT 7805,2*
X86000000Y-69040000D03*
D22*
G04 #@! TO.P,RIT 7805,1*
X86000000Y-66500000D03*
G04 #@! TD*
D13*
G04 #@! TO.P,1K,2*
G04 #@! TO.N,N/C*
X97660000Y-57500000D03*
D12*
G04 #@! TO.P,1K,1*
X87500000Y-57500000D03*
G04 #@! TD*
D13*
G04 #@! TO.P,R. Var,2*
G04 #@! TO.N,N/C*
X97660000Y-60500000D03*
D12*
G04 #@! TO.P,R. Var,1*
X87500000Y-60500000D03*
G04 #@! TD*
D13*
G04 #@! TO.P,ATMega328P,28*
G04 #@! TO.N,N/C*
X127582206Y-76178164D03*
G04 #@! TO.P,ATMega328P,14*
X119962206Y-109198164D03*
G04 #@! TO.P,ATMega328P,27*
X127582206Y-78718164D03*
G04 #@! TO.P,ATMega328P,13*
X119962206Y-106658164D03*
G04 #@! TO.P,ATMega328P,26*
X127582206Y-81258164D03*
G04 #@! TO.P,ATMega328P,12*
X119962206Y-104118164D03*
G04 #@! TO.P,ATMega328P,25*
X127582206Y-83798164D03*
G04 #@! TO.P,ATMega328P,11*
X119962206Y-101578164D03*
G04 #@! TO.P,ATMega328P,24*
X127582206Y-86338164D03*
G04 #@! TO.P,ATMega328P,10*
X119962206Y-99038164D03*
G04 #@! TO.P,ATMega328P,23*
X127582206Y-88878164D03*
G04 #@! TO.P,ATMega328P,9*
X119962206Y-96498164D03*
G04 #@! TO.P,ATMega328P,22*
X127582206Y-91418164D03*
G04 #@! TO.P,ATMega328P,8*
X119962206Y-93958164D03*
G04 #@! TO.P,ATMega328P,21*
X127582206Y-93958164D03*
G04 #@! TO.P,ATMega328P,7*
X119962206Y-91418164D03*
G04 #@! TO.P,ATMega328P,20*
X127582206Y-96498164D03*
G04 #@! TO.P,ATMega328P,6*
X119962206Y-88878164D03*
G04 #@! TO.P,ATMega328P,19*
X127582206Y-99038164D03*
G04 #@! TO.P,ATMega328P,5*
X119962206Y-86338164D03*
G04 #@! TO.P,ATMega328P,18*
X127582206Y-101578164D03*
G04 #@! TO.P,ATMega328P,4*
X119962206Y-83798164D03*
G04 #@! TO.P,ATMega328P,17*
X127582206Y-104118164D03*
G04 #@! TO.P,ATMega328P,3*
X119962206Y-81258164D03*
G04 #@! TO.P,ATMega328P,16*
X127582206Y-106658164D03*
G04 #@! TO.P,ATMega328P,2*
X119962206Y-78718164D03*
G04 #@! TO.P,ATMega328P,15*
X127582206Y-109198164D03*
D16*
G04 #@! TO.P,ATMega328P,1*
X119962206Y-76178164D03*
G04 #@! TD*
D23*
G04 #@! TO.P,16Mhz,2*
G04 #@! TO.N,N/C*
X114962206Y-95778164D03*
G04 #@! TO.P,16Mhz,1*
X114962206Y-100678164D03*
G04 #@! TD*
D12*
G04 #@! TO.P,22pF,2*
G04 #@! TO.N,N/C*
X110462206Y-104678164D03*
G04 #@! TO.P,22pF,1*
X110462206Y-99678164D03*
G04 #@! TD*
D24*
G04 #@! TO.N,*
X92000000Y-68000000D03*
X92000000Y-70540000D03*
X123962206Y-71178164D03*
X101500000Y-70540000D03*
X103000000Y-92500000D03*
X85000000Y-119500000D03*
X79812966Y-114187034D03*
X87000000Y-114187034D03*
X99076987Y-112000000D03*
G04 #@! TD*
D25*
G04 #@! TO.N,*
X119962206Y-93958164D02*
X121682206Y-93958164D01*
X121682206Y-93958164D02*
X124222206Y-91418164D01*
X124462206Y-91418164D02*
X127582206Y-91418164D01*
D26*
X124222206Y-91418164D02*
X124462206Y-91418164D01*
D25*
X110462206Y-97178164D02*
X110462206Y-99678164D01*
X113962206Y-93178164D02*
X117462206Y-93178164D01*
X118242206Y-93958164D02*
X119962206Y-93958164D01*
X117462206Y-93178164D02*
X118242206Y-93958164D01*
D27*
X92000000Y-68000000D02*
X98500000Y-68000000D01*
D26*
X98460000Y-70540000D02*
X98500000Y-70500000D01*
D27*
X92000000Y-70540000D02*
X98460000Y-70540000D01*
D25*
X126920000Y-75515958D02*
X127582206Y-76178164D01*
X126920000Y-59000000D02*
X126920000Y-75515958D01*
X132000000Y-60750000D02*
X131500000Y-61250000D01*
X132000000Y-59000000D02*
X132000000Y-60750000D01*
X127582206Y-78718164D02*
X129281836Y-78718164D01*
X131500000Y-76500000D02*
X131500000Y-74500000D01*
X129281836Y-78718164D02*
X131500000Y-76500000D01*
X131500000Y-61250000D02*
X131500000Y-74500000D01*
D26*
X131500000Y-74500000D02*
X131500000Y-75500000D01*
D27*
X107321836Y-66178164D02*
X113462206Y-66178164D01*
X98500000Y-68000000D02*
X105500000Y-68000000D01*
X105500000Y-68000000D02*
X107321836Y-66178164D01*
X123324042Y-70540000D02*
X123962206Y-71178164D01*
X98460000Y-70540000D02*
X101500000Y-70540000D01*
X113462206Y-60957794D02*
X115420000Y-59000000D01*
X113462206Y-66178164D02*
X113462206Y-60957794D01*
X123962206Y-71178164D02*
X123962206Y-68462206D01*
X120500000Y-65000000D02*
X120500000Y-59000000D01*
X123962206Y-68462206D02*
X120500000Y-65000000D01*
D25*
X110462206Y-95537794D02*
X110462206Y-97178164D01*
X113962206Y-93178164D02*
X112821836Y-93178164D01*
X112821836Y-93178164D02*
X110462206Y-95537794D01*
D27*
X101500000Y-70540000D02*
X123324042Y-70540000D01*
D28*
X127582206Y-86338164D02*
X123838164Y-86338164D01*
X123838164Y-86338164D02*
X122500000Y-85000000D01*
X122500000Y-85000000D02*
X122500000Y-75000000D01*
X122500000Y-75000000D02*
X121500000Y-74000000D01*
X121500000Y-74000000D02*
X110000000Y-74000000D01*
X110000000Y-74000000D02*
X108500000Y-75500000D01*
X108500000Y-75500000D02*
X105000000Y-79000000D01*
X105000000Y-79000000D02*
X105000000Y-85000000D01*
X127582206Y-83798164D02*
X125298164Y-83798164D01*
X125298164Y-83798164D02*
X124500000Y-83000000D01*
X124500000Y-83000000D02*
X124500000Y-76500000D01*
X124500000Y-76500000D02*
X124500000Y-75000000D01*
X124500000Y-75000000D02*
X122500000Y-73000000D01*
X122500000Y-73000000D02*
X108500000Y-73000000D01*
X108500000Y-73000000D02*
X103000000Y-78500000D01*
X103000000Y-78500000D02*
X103000000Y-85000000D01*
X105000000Y-85000000D02*
X105000000Y-90500000D01*
X105000000Y-90500000D02*
X103000000Y-92500000D01*
X103000000Y-85000000D02*
X103000000Y-90000000D01*
D26*
X100500000Y-92500000D02*
X100500000Y-92500000D01*
X103000000Y-92500000D02*
X103000000Y-92500000D01*
X85000000Y-119500000D02*
X85000000Y-119500000D01*
D29*
X83504114Y-120995886D02*
X85000000Y-119500000D01*
X79812966Y-114187034D02*
X87000000Y-114187034D01*
X68500000Y-67000000D02*
X64500000Y-67000000D01*
X64500000Y-67000000D02*
X58500000Y-73000000D01*
X58500000Y-73000000D02*
X58000000Y-73500000D01*
X90000000Y-121500000D02*
X92847034Y-124347034D01*
X92847034Y-124347034D02*
X94576987Y-124347034D01*
D25*
X127582206Y-104118164D02*
X129381836Y-104118164D01*
X129381836Y-104118164D02*
X131263672Y-106000000D01*
X131263672Y-106000000D02*
X131263672Y-114736328D01*
X127582206Y-110417794D02*
X126000000Y-112000000D01*
X127582206Y-109198164D02*
X127582206Y-110417794D01*
X125341836Y-106658164D02*
X124000000Y-108000000D01*
X124000000Y-109500000D02*
X122500000Y-111000000D01*
X127582206Y-106658164D02*
X125341836Y-106658164D01*
X124000000Y-108000000D02*
X124000000Y-109500000D01*
X132080000Y-129000000D02*
X132080000Y-126080000D01*
X121080000Y-129000000D02*
X121080000Y-125080000D01*
X121080000Y-125080000D02*
X120500000Y-124500000D01*
X120500000Y-124500000D02*
X108000000Y-124500000D01*
D28*
X103000000Y-90000000D02*
X101500000Y-91500000D01*
X101500000Y-91500000D02*
X100500000Y-92500000D01*
D29*
X64000000Y-90500000D02*
X60500000Y-87000000D01*
X60500000Y-87000000D02*
X60500000Y-79500000D01*
X63000000Y-77000000D02*
X67000000Y-77000000D01*
X68500000Y-77000000D02*
X67000000Y-77000000D01*
X60500000Y-79500000D02*
X63000000Y-77000000D01*
X67000000Y-77000000D02*
X64500000Y-77000000D01*
X58000000Y-73500000D02*
X58000000Y-88500000D01*
X58000000Y-88500000D02*
X63000000Y-93500000D01*
X63000000Y-93500000D02*
X88000000Y-93500000D01*
X88000000Y-93500000D02*
X93000000Y-98500000D01*
X90000000Y-112000000D02*
X90000000Y-121500000D01*
D25*
X122500000Y-111000000D02*
X105000000Y-111000000D01*
X105000000Y-111000000D02*
X103500000Y-112500000D01*
D29*
X93000000Y-98500000D02*
X95500000Y-101000000D01*
D28*
X102000000Y-96000000D02*
X100500000Y-94500000D01*
X100500000Y-92500000D02*
X100500000Y-94500000D01*
D26*
X109580000Y-128080000D02*
X109580000Y-129000000D01*
D25*
X106500000Y-125000000D02*
X109580000Y-128080000D01*
X95840000Y-132000000D02*
X99500000Y-128340000D01*
X87000000Y-132000000D02*
X95840000Y-132000000D01*
X103500000Y-124000000D02*
X105500000Y-124000000D01*
X105500000Y-124000000D02*
X106500000Y-125000000D01*
X108000000Y-124500000D02*
X106000000Y-122500000D01*
X104500000Y-123000000D02*
X105500000Y-124000000D01*
D29*
X95500000Y-106500000D02*
X94500000Y-107500000D01*
X94500000Y-107500000D02*
X90000000Y-112000000D01*
D25*
X103500000Y-124000000D02*
X103040000Y-124000000D01*
X87000000Y-134540000D02*
X98500000Y-134540000D01*
D29*
X71504114Y-120995886D02*
X74500000Y-120995886D01*
X74500000Y-120995886D02*
X83504114Y-120995886D01*
X70160000Y-135000000D02*
X70160000Y-131660000D01*
X70160000Y-131660000D02*
X68000000Y-129500000D01*
X68000000Y-129500000D02*
X68000000Y-124500000D01*
X68000000Y-124500000D02*
X71504114Y-120995886D01*
D25*
X128000000Y-118000000D02*
X128000000Y-122000000D01*
X132080000Y-126080000D02*
X129000000Y-123000000D01*
X128000000Y-122000000D02*
X129000000Y-123000000D01*
X131263672Y-114736328D02*
X128000000Y-118000000D01*
X106000000Y-113500000D02*
X107500000Y-112000000D01*
X106000000Y-122500000D02*
X106000000Y-113500000D01*
X126000000Y-112000000D02*
X107500000Y-112000000D01*
X104500000Y-123000000D02*
X103500000Y-122000000D01*
X103500000Y-112500000D02*
X103500000Y-122000000D01*
D29*
X95500000Y-101000000D02*
X95500000Y-106500000D01*
D28*
X100500000Y-112000000D02*
X99076987Y-112000000D01*
X100500000Y-112000000D02*
X101500000Y-112000000D01*
D25*
X101000000Y-112000000D02*
X100500000Y-112000000D01*
D28*
X101500000Y-112000000D02*
X102000000Y-111500000D01*
X102000000Y-111500000D02*
X102000000Y-103500000D01*
D25*
X102000000Y-105500000D02*
X102000000Y-103500000D01*
D28*
X102000000Y-103500000D02*
X102000000Y-96000000D01*
D25*
X101500000Y-124500000D02*
X101500000Y-131540000D01*
X102000000Y-124000000D02*
X101500000Y-124500000D01*
X103040000Y-124000000D02*
X102000000Y-124000000D01*
X101500000Y-131540000D02*
X98500000Y-134540000D01*
D29*
X91021323Y-90500000D02*
X89000000Y-90500000D01*
X99076987Y-98555664D02*
X91021323Y-90500000D01*
X99076987Y-99687034D02*
X99076987Y-98555664D01*
X89000000Y-90500000D02*
X64000000Y-90500000D01*
G04 #@! TD*
M02*
