M48
;DRILL file {KiCad 5.0.2+dfsg1-1+deb10u1} date mer. 22 nov. 2023 23:09:39 CET
;FORMAT={-:-/ absolute / inch / decimal}
FMAT,2
INCH,TZ
T1C0.0157
T2C0.0315
T3C0.0354
T4C0.0394
T5C0.0433
T6C0.0472
T7C0.0591
T8C0.0598
%
G90
G05
T1
X3.1422Y-4.4956
X3.3465Y-4.7047
X3.4252Y-4.4956
X3.622Y-2.6772
X3.622Y-2.7772
X3.9007Y-4.4094
X3.9961Y-2.7772
X4.0551Y-3.6417
X4.8804Y-2.8023
T2
X4.467Y-2.6054
X4.467Y-3.0054
X4.7229Y-2.9991
X4.7229Y-3.0991
X4.7229Y-3.1991
X4.7229Y-3.2991
X4.7229Y-3.3991
X4.7229Y-3.4991
X4.7229Y-3.5991
X4.7229Y-3.6991
X4.7229Y-3.7991
X4.7229Y-3.8991
X4.7229Y-3.9991
X4.7229Y-4.0991
X4.7229Y-4.1991
X4.7229Y-4.2991
X5.0229Y-2.9991
X5.0229Y-3.0991
X5.0229Y-3.1991
X5.0229Y-3.2991
X5.0229Y-3.3991
X5.0229Y-3.4991
X5.0229Y-3.5991
X5.0229Y-3.6991
X5.0229Y-3.7991
X5.0229Y-3.8991
X5.0229Y-3.9991
X5.0229Y-4.0991
X5.0229Y-4.1991
X5.0229Y-4.2991
X3.4055Y-4.8622
X3.4055Y-4.9606
X2.8543Y-4.9213
X2.8543Y-5.0197
X4.7623Y-4.7905
X5.1623Y-4.7905
X4.5261Y-3.7708
X4.5261Y-3.9637
X3.9173Y-5.0528
X3.9173Y-5.4528
X3.7235Y-5.0467
X3.7235Y-5.4467
X4.6245Y-4.5936
X4.6245Y-4.7905
X4.3489Y-3.6291
X4.3489Y-3.8259
X3.7235Y-4.4956
X3.7235Y-4.8956
X4.3489Y-3.9243
X4.3489Y-4.1212
X3.4449Y-2.2638
X3.8449Y-2.2638
X3.9007Y-3.9247
X3.9007Y-4.3247
X3.0345Y-4.4956
X3.0345Y-4.8956
X3.9007Y-4.4956
X3.9007Y-4.8956
X3.0345Y-5.0467
X3.0345Y-5.4467
X3.4449Y-2.3819
X3.8449Y-2.3819
T3
X3.4252Y-5.1969
X3.4252Y-5.2969
T4
X2.9921Y-2.2835
X2.9921Y-2.4803
X3.189Y-2.2835
X3.189Y-2.4803
T5
X3.3858Y-2.6181
X3.3858Y-2.7181
X3.3858Y-2.8181
T6
X3.0315Y-3.189
X3.2283Y-3.189
X3.5827Y-3.189
X3.7795Y-3.189
T7
X1.9094Y-2.4409
X1.9094Y-2.6378
X1.9094Y-2.8346
X1.9094Y-3.0315
X1.9094Y-3.2283
X2.6969Y-2.4409
X2.6969Y-2.6378
X2.6969Y-2.8346
X2.6969Y-3.0315
X2.6969Y-3.2283
T8
X2.5622Y-5.315
X2.7622Y-5.315
X4.5441Y-2.3228
X4.7441Y-2.3228
X4.1142Y-5.0787
X4.3142Y-5.0787
X4.0913Y-2.3228
X4.2913Y-2.3228
X4.3883Y-4.5936
X4.3883Y-4.7936
X4.9969Y-2.3228
X5.1969Y-2.3228
X4.5669Y-5.0787
X4.7669Y-5.0787
X1.5748Y-2.8937
X1.5748Y-3.0937
X1.5748Y-2.4213
X1.5748Y-2.6213
X5.Y-5.0787
X5.2Y-5.0787
T0
M30
